<svg width="26" height="26" viewBox="0 0 26 26" fill="none" xmlns="http://www.w3.org/2000/svg">
<path d="M24.1438 13.0598C24.0226 12.7284 23.6557 12.5584 23.3261 12.68L17.3534 14.8677L22.1814 10.0436C22.3009 9.92463 22.3677 9.7621 22.3677 9.59264C22.3677 9.42389 22.3009 9.2616 22.1814 9.14165L18.4467 5.40489C18.1977 5.15586 17.7943 5.15586 17.5452 5.40489L12.8101 10.1367L15.4658 3.83705C15.5314 3.68121 15.5322 3.50561 15.4691 3.34914C15.4052 3.19267 15.2819 3.06777 15.1259 3.00236L10.2583 0.949924C9.93351 0.811478 9.55957 0.965744 9.42301 1.28962L6.80027 7.51132V0.887037C6.80027 0.53506 6.51472 0.249512 6.16274 0.249512H0.637525C0.285548 0.249512 0 0.53506 0 0.887037V25.113C0 25.465 0.285548 25.7505 0.637525 25.7505H6.16274C6.24058 25.7505 6.31449 25.7343 6.38336 25.709C6.4523 25.7339 6.52408 25.7505 6.59878 25.7505C6.67205 25.7505 6.74588 25.7381 6.81813 25.7115L25.5815 18.8374C25.9119 18.7162 26.082 18.3501 25.9608 18.0197L24.1438 13.0598ZM3.76872 24.4755H1.27505V23.4238V22.7323V22.2591V20.6184V1.52456H5.52522V10.5358V12.1767V13.8181V17.4171V18.3178V19.201V19.2193V23.1689V23.8322V24.0352V24.0708V24.4755H5.40999H5.02795H3.76872V24.4755ZM14.0434 3.92937L10.4194 12.526L9.76271 14.0833L9.1059 15.6406L7.9848 18.2998L7.30761 19.9057L6.80027 21.1106V20.0917V18.734V17.9451V17.0436V16.1429V10.7939L10.3504 2.37302L14.0434 3.92937ZM8.94448 19.3059L9.62167 17.7001L11.4971 13.2512L17.9952 6.75738L20.8288 9.59225L14.5059 15.9113L12.3609 18.0546L7.36932 23.0427L8.94448 19.3059ZM8.46507 23.7503L15.208 17.0119L23.1659 14.0966L24.5443 17.8595L8.46507 23.7503Z" fill="#888888"/>
<path d="M3.40003 21.8544C3.37201 21.8544 3.34564 21.8606 3.31849 21.8623C3.07962 21.8839 2.86837 21.9939 2.71701 22.1628C2.61721 22.274 2.54354 22.4093 2.50702 22.5596C2.49042 22.6293 2.479 22.7007 2.479 22.7754C2.479 22.9779 2.54622 23.163 2.65665 23.3149C2.82405 23.5448 3.09347 23.696 3.40003 23.696C3.44458 23.696 3.48716 23.6893 3.53013 23.6827C3.71399 23.6565 3.87975 23.5768 4.01158 23.4585C4.07526 23.4012 4.13145 23.3365 4.17734 23.2634C4.2529 23.1438 4.29894 23.0052 4.31201 22.8566C4.31452 22.8292 4.32011 22.8026 4.32011 22.7749C4.32106 22.2665 3.90871 21.8544 3.40003 21.8544Z" fill="#888888"/>
</svg>
