<svg width="18" height="18" viewBox="0 0 18 18" fill="none" xmlns="http://www.w3.org/2000/svg">
<g clip-path="url(#clip0)">
<path d="M7.3125 18C7.22173 18 7.13026 17.9783 7.04704 17.9333C6.86398 17.8358 6.75 17.6445 6.75 17.4375V10.2225C6.75 9.96007 6.63972 9.70793 6.44623 9.53105L0.425308 4.01619C0.154495 3.76721 0 3.41469 0 3.04871V1.31245C0 0.58873 0.58873 0 1.31245 0H16.6875C17.4113 0 18 0.58873 18 1.31245V3.04871C18 3.41469 17.8455 3.76721 17.5755 4.01619L11.5553 9.53174C11.3603 9.70793 11.25 9.96007 11.25 10.2225V14.7855C11.25 15.225 11.0318 15.6337 10.6658 15.8774L7.62451 17.9047C7.53072 17.9686 7.42195 18 7.3125 18ZM1.31245 1.125C1.20905 1.125 1.125 1.20905 1.125 1.31245V3.04871C1.125 3.1013 1.14752 3.15157 1.18652 3.18755L7.20525 8.70145C7.63055 9.09146 7.875 9.64572 7.875 10.2225V16.386L10.0418 14.9415C10.0936 14.9069 10.125 14.8484 10.125 14.7855V10.2225C10.125 9.64503 10.3688 9.09077 10.7954 8.70145L16.8143 3.18672C16.8525 3.15157 16.875 3.1013 16.875 3.04871V1.31245C16.875 1.20905 16.791 1.125 16.6875 1.125H1.31245Z" fill="#868686"/>
</g>
<defs>
<clipPath id="clip0">
<rect width="18" height="18" fill="white"/>
</clipPath>
</defs>
</svg>
