<svg width="15" height="15" viewBox="0 0 15 15" fill="none" xmlns="http://www.w3.org/2000/svg">
<g clip-path="url(#clip0)">
<path d="M15 0.934316C15 0.480395 14.632 0.112427 14.1781 0.112427H0.821954C0.652706 0.112427 0.487543 0.164707 0.349117 0.262064C-0.0221646 0.523198 -0.111431 1.03591 0.149703 1.40719L4.99231 8.29198L5.00591 13.3007C5.00676 13.6134 5.09972 13.9188 5.27313 14.179C5.76057 14.9102 6.74847 15.1078 7.47967 14.6203L9.20928 13.4673C9.66883 13.1609 9.94383 12.6442 9.94125 12.0919L9.92368 8.32226L14.8475 1.41124C14.9467 1.27196 15 1.10526 15 0.934316ZM8.27747 7.79995L8.29751 12.0995L6.64949 13.1982L6.63474 7.76975L2.40494 1.7562H12.5834L8.27747 7.79995Z" fill="#A7A7A7"/>
</g>
<defs>
<clipPath id="clip0">
<rect width="15" height="15" fill="white"/>
</clipPath>
</defs>
</svg>
