<svg width="27" height="26" viewBox="0 0 27 26" fill="none" xmlns="http://www.w3.org/2000/svg">
<path d="M12.6474 0.273742L0.568421 9.0558C0.329818 9.22928 0.153568 9.47113 0.0646386 9.74711C-0.0242911 10.0231 -0.0213924 10.3192 0.0729238 10.5935C0.16724 10.8678 0.348192 11.1064 0.590149 11.2754C0.832105 11.4445 1.1228 11.5354 1.42105 11.5354H2.13158V23.9336C2.13221 24.4815 2.35699 25.0067 2.7566 25.3941C3.15622 25.7815 3.69802 25.9994 4.26316 26H22.7368C23.302 25.9994 23.8438 25.7815 24.2434 25.3941C24.643 25.0067 24.8678 24.4815 24.8684 23.9336V11.5354H25.5789C25.8772 11.5354 26.1679 11.4445 26.4099 11.2754C26.6518 11.1064 26.8328 10.8678 26.9271 10.5935C27.0214 10.3192 27.0243 10.0231 26.9354 9.74711C26.8464 9.47113 26.6702 9.22928 26.4316 9.0558L14.3526 0.273742C14.1062 0.0959943 13.8072 0 13.5 0C13.1928 0 12.8938 0.0959943 12.6474 0.273742ZM10.6579 24.6224V18.4233H16.3421V24.6224H10.6579ZM23.4474 23.9336C23.4472 24.1162 23.3722 24.2913 23.239 24.4205C23.1058 24.5496 22.9252 24.6222 22.7368 24.6224H17.7632V18.4233C17.7627 18.0581 17.6129 17.7079 17.3465 17.4497C17.0801 17.1914 16.7189 17.0462 16.3421 17.0457H10.6579C10.2811 17.0462 9.91993 17.1914 9.65353 17.4497C9.38712 17.7079 9.23726 18.0581 9.23684 18.4233V24.6224H4.26316C4.07478 24.6222 3.89418 24.5496 3.76097 24.4205C3.62777 24.2913 3.55284 24.1162 3.55263 23.9336V11.5354H23.4474V23.9336ZM1.42105 10.1579L13.5 1.3758L25.5789 10.1579H1.42105Z" fill="#888888"/>
</svg>
