<svg width="24" height="24" viewBox="0 0 29 29" fill="none" xmlns="http://www.w3.org/2000/svg">
<path d="M14.5 0C9.07313 0 4.65796 4.41511 4.65796 9.84201C4.65796 12.0228 5.94189 15.3394 8.69858 20.2794C10.5797 23.6502 12.4521 26.4973 12.5311 26.6173L13.8845 28.6686C14.0209 28.8755 14.2521 29 14.5 29C14.7479 29 14.9791 28.8755 15.1156 28.6686L16.4689 26.6174C16.5471 26.4988 18.4059 23.6763 20.3015 20.2794C23.0582 15.3397 24.3421 12.0231 24.3421 9.84201C24.3421 4.41511 19.9269 0 14.5 0ZM19.0137 19.5607C17.1445 22.9101 15.315 25.6883 15.2379 25.805L14.5 26.9235L13.7624 25.8053C13.6849 25.6876 11.8414 22.8845 9.9864 19.5607C7.42934 14.9784 6.13279 11.7085 6.13279 9.84201C6.13279 5.22833 9.88629 1.47483 14.5 1.47483C19.1138 1.47483 22.8673 5.22833 22.8673 9.84201C22.8673 11.7087 21.5707 14.9785 19.0137 19.5607Z" fill="#39A9CB"/>
<path d="M14.5001 4.32367C11.4911 4.32367 9.04321 6.77165 9.04321 9.78054C9.04321 12.7894 11.4911 15.2374 14.5001 15.2374C17.509 15.2374 19.957 12.7894 19.957 9.78054C19.957 6.77165 17.509 4.32367 14.5001 4.32367ZM14.5001 13.7626C12.3044 13.7626 10.518 11.9763 10.518 9.78054C10.518 7.58481 12.3044 5.7985 14.5001 5.7985C16.6959 5.7985 18.4821 7.58481 18.4821 9.78054C18.4821 11.9763 16.6959 13.7626 14.5001 13.7626Z" fill="#39A9CB"/>
</svg>
