<svg width="203" height="42" viewBox="0 0 203 42" fill="none" xmlns="http://www.w3.org/2000/svg">
<path d="M45.6666 9.4H51.1746C52.5186 9.4 53.7126 9.664 54.7566 10.192C55.8006 10.708 56.6106 11.446 57.1866 12.406C57.7626 13.354 58.0506 14.452 58.0506 15.7C58.0506 16.948 57.7626 18.052 57.1866 19.012C56.6106 19.96 55.8006 20.698 54.7566 21.226C53.7126 21.742 52.5186 22 51.1746 22H45.6666V9.4ZM51.0666 20.02C51.9906 20.02 52.8006 19.846 53.4966 19.498C54.2046 19.138 54.7446 18.634 55.1166 17.986C55.5006 17.326 55.6926 16.564 55.6926 15.7C55.6926 14.836 55.5006 14.08 55.1166 13.432C54.7446 12.772 54.2046 12.268 53.4966 11.92C52.8006 11.56 51.9906 11.38 51.0666 11.38H48.0066V20.02H51.0666ZM64.6417 22.126C63.6697 22.126 62.7937 21.916 62.0137 21.496C61.2337 21.076 60.6217 20.494 60.1777 19.75C59.7457 18.994 59.5297 18.142 59.5297 17.194C59.5297 16.246 59.7457 15.4 60.1777 14.656C60.6217 13.912 61.2337 13.33 62.0137 12.91C62.7937 12.49 63.6697 12.28 64.6417 12.28C65.6257 12.28 66.5077 12.49 67.2877 12.91C68.0677 13.33 68.6737 13.912 69.1057 14.656C69.5497 15.4 69.7717 16.246 69.7717 17.194C69.7717 18.142 69.5497 18.994 69.1057 19.75C68.6737 20.494 68.0677 21.076 67.2877 21.496C66.5077 21.916 65.6257 22.126 64.6417 22.126ZM64.6417 20.2C65.4697 20.2 66.1537 19.924 66.6937 19.372C67.2337 18.82 67.5037 18.094 67.5037 17.194C67.5037 16.294 67.2337 15.568 66.6937 15.016C66.1537 14.464 65.4697 14.188 64.6417 14.188C63.8137 14.188 63.1297 14.464 62.5897 15.016C62.0617 15.568 61.7977 16.294 61.7977 17.194C61.7977 18.094 62.0617 18.82 62.5897 19.372C63.1297 19.924 63.8137 20.2 64.6417 20.2ZM76.3333 22.126C75.3373 22.126 74.4433 21.916 73.6513 21.496C72.8593 21.076 72.2413 20.494 71.7973 19.75C71.3533 18.994 71.1313 18.142 71.1313 17.194C71.1313 16.246 71.3533 15.4 71.7973 14.656C72.2413 13.912 72.8533 13.33 73.6333 12.91C74.4253 12.49 75.3253 12.28 76.3333 12.28C77.2813 12.28 78.1093 12.472 78.8173 12.856C79.5373 13.24 80.0773 13.792 80.4373 14.512L78.7093 15.52C78.4333 15.076 78.0853 14.746 77.6653 14.53C77.2573 14.302 76.8073 14.188 76.3153 14.188C75.4753 14.188 74.7793 14.464 74.2273 15.016C73.6753 15.556 73.3993 16.282 73.3993 17.194C73.3993 18.106 73.6693 18.838 74.2093 19.39C74.7613 19.93 75.4633 20.2 76.3153 20.2C76.8073 20.2 77.2573 20.092 77.6653 19.876C78.0853 19.648 78.4333 19.312 78.7093 18.868L80.4373 19.876C80.0653 20.596 79.5193 21.154 78.7993 21.55C78.0913 21.934 77.2693 22.126 76.3333 22.126ZM83.4538 22.126C83.0458 22.126 82.6978 21.988 82.4098 21.712C82.1218 21.424 81.9778 21.064 81.9778 20.632C81.9778 20.188 82.1158 19.828 82.3918 19.552C82.6798 19.276 83.0338 19.138 83.4538 19.138C83.8738 19.138 84.2218 19.276 84.4978 19.552C84.7858 19.828 84.9298 20.188 84.9298 20.632C84.9298 21.064 84.7858 21.424 84.4978 21.712C84.2098 21.988 83.8618 22.126 83.4538 22.126ZM96.2586 12.388V22H94.1166V20.776C93.7566 21.208 93.3066 21.544 92.7666 21.784C92.2266 22.012 91.6446 22.126 91.0206 22.126C89.7366 22.126 88.7226 21.772 87.9786 21.064C87.2466 20.344 86.8806 19.282 86.8806 17.878V12.388H89.1306V17.572C89.1306 18.436 89.3226 19.084 89.7066 19.516C90.1026 19.936 90.6606 20.146 91.3806 20.146C92.1846 20.146 92.8206 19.9 93.2886 19.408C93.7686 18.904 94.0086 18.184 94.0086 17.248V12.388H96.2586ZM101.347 13.792C101.995 12.784 103.135 12.28 104.767 12.28V14.422C104.575 14.386 104.401 14.368 104.245 14.368C103.369 14.368 102.685 14.626 102.193 15.142C101.701 15.646 101.455 16.378 101.455 17.338V22H99.2045V12.388H101.347V13.792ZM110.294 12.28C111.71 12.28 112.79 12.622 113.534 13.306C114.29 13.978 114.668 14.998 114.668 16.366V22H112.544V20.83C112.268 21.25 111.872 21.574 111.356 21.802C110.852 22.018 110.24 22.126 109.52 22.126C108.8 22.126 108.17 22.006 107.63 21.766C107.09 21.514 106.67 21.172 106.37 20.74C106.082 20.296 105.938 19.798 105.938 19.246C105.938 18.382 106.256 17.692 106.892 17.176C107.54 16.648 108.554 16.384 109.934 16.384H112.418V16.24C112.418 15.568 112.214 15.052 111.806 14.692C111.41 14.332 110.816 14.152 110.024 14.152C109.484 14.152 108.95 14.236 108.422 14.404C107.906 14.572 107.468 14.806 107.108 15.106L106.226 13.468C106.73 13.084 107.336 12.79 108.044 12.586C108.752 12.382 109.502 12.28 110.294 12.28ZM109.988 20.488C110.552 20.488 111.05 20.362 111.482 20.11C111.926 19.846 112.238 19.474 112.418 18.994V17.878H110.096C108.8 17.878 108.152 18.304 108.152 19.156C108.152 19.564 108.314 19.888 108.638 20.128C108.962 20.368 109.412 20.488 109.988 20.488ZM117.556 8.644H119.806V22H117.556V8.644ZM125.729 22.126C124.949 22.126 124.187 22.024 123.443 21.82C122.699 21.616 122.105 21.358 121.661 21.046L122.525 19.336C122.957 19.624 123.473 19.858 124.073 20.038C124.685 20.206 125.285 20.29 125.873 20.29C127.217 20.29 127.889 19.936 127.889 19.228C127.889 18.892 127.715 18.658 127.367 18.526C127.031 18.394 126.485 18.268 125.729 18.148C124.937 18.028 124.289 17.89 123.785 17.734C123.293 17.578 122.861 17.308 122.489 16.924C122.129 16.528 121.949 15.982 121.949 15.286C121.949 14.374 122.327 13.648 123.083 13.108C123.851 12.556 124.883 12.28 126.179 12.28C126.839 12.28 127.499 12.358 128.159 12.514C128.819 12.658 129.359 12.856 129.779 13.108L128.915 14.818C128.099 14.338 127.181 14.098 126.161 14.098C125.501 14.098 124.997 14.2 124.649 14.404C124.313 14.596 124.145 14.854 124.145 15.178C124.145 15.538 124.325 15.796 124.685 15.952C125.057 16.096 125.627 16.234 126.395 16.366C127.163 16.486 127.793 16.624 128.285 16.78C128.777 16.936 129.197 17.2 129.545 17.572C129.905 17.944 130.085 18.472 130.085 19.156C130.085 20.056 129.695 20.776 128.915 21.316C128.135 21.856 127.073 22.126 125.729 22.126ZM135.947 17.878L134.273 19.462V22H132.023V8.644H134.273V16.708L138.935 12.388H141.635L137.621 16.42L142.013 22H139.277L135.947 17.878ZM144.362 22.126C143.954 22.126 143.606 21.988 143.318 21.712C143.03 21.424 142.886 21.064 142.886 20.632C142.886 20.188 143.024 19.828 143.3 19.552C143.588 19.276 143.942 19.138 144.362 19.138C144.782 19.138 145.13 19.276 145.406 19.552C145.694 19.828 145.838 20.188 145.838 20.632C145.838 21.064 145.694 21.424 145.406 21.712C145.118 21.988 144.77 22.126 144.362 22.126ZM151.961 17.878L150.287 19.462V22H148.037V8.644H150.287V16.708L154.949 12.388H157.649L153.635 16.42L158.027 22H155.291L151.961 17.878ZM166.775 20.2V22H158.477V20.578L163.751 14.188H158.585V12.388H166.631V13.81L161.339 20.2H166.775Z" fill="#232323"/>
<path d="M47.588 30.528C48.372 30.528 49.08 30.712 49.712 31.08C50.352 31.448 50.852 31.96 51.212 32.616C51.58 33.264 51.764 33.992 51.764 34.8C51.764 35.608 51.58 36.34 51.212 36.996C50.852 37.644 50.352 38.152 49.712 38.52C49.08 38.888 48.372 39.072 47.588 39.072C46.932 39.072 46.332 38.968 45.788 38.76C45.244 38.552 44.788 38.244 44.42 37.836L44.972 37.272C45.636 37.944 46.496 38.28 47.552 38.28C48.144 38.28 48.684 38.144 49.172 37.872C49.66 37.592 50.052 37.212 50.348 36.732C50.652 36.244 50.824 35.696 50.864 35.088H46.532V34.356H50.852C50.788 33.772 50.604 33.252 50.3 32.796C50.004 32.332 49.616 31.972 49.136 31.716C48.656 31.452 48.128 31.32 47.552 31.32C46.496 31.32 45.636 31.656 44.972 32.328L44.42 31.764C44.788 31.356 45.244 31.048 45.788 30.84C46.332 30.632 46.932 30.528 47.588 30.528ZM58.6572 32.688V39H57.8052V33.444H54.7812L54.6972 35.004C54.6332 36.316 54.4812 37.324 54.2412 38.028C54.0012 38.732 53.5732 39.084 52.9572 39.084C52.7892 39.084 52.5852 39.052 52.3452 38.988L52.4052 38.256C52.5492 38.288 52.6492 38.304 52.7052 38.304C53.0332 38.304 53.2812 38.152 53.4492 37.848C53.6172 37.544 53.7292 37.168 53.7852 36.72C53.8412 36.272 53.8892 35.68 53.9292 34.944L54.0372 32.688H58.6572ZM66.5992 36.108H61.3192C61.3672 36.764 61.6192 37.296 62.0752 37.704C62.5312 38.104 63.1072 38.304 63.8032 38.304C64.1952 38.304 64.5552 38.236 64.8832 38.1C65.2112 37.956 65.4952 37.748 65.7352 37.476L66.2152 38.028C65.9352 38.364 65.5832 38.62 65.1592 38.796C64.7432 38.972 64.2832 39.06 63.7792 39.06C63.1312 39.06 62.5552 38.924 62.0512 38.652C61.5552 38.372 61.1672 37.988 60.8872 37.5C60.6072 37.012 60.4672 36.46 60.4672 35.844C60.4672 35.228 60.5992 34.676 60.8632 34.188C61.1352 33.7 61.5032 33.32 61.9672 33.048C62.4392 32.776 62.9672 32.64 63.5512 32.64C64.1352 32.64 64.6592 32.776 65.1232 33.048C65.5872 33.32 65.9512 33.7 66.2152 34.188C66.4792 34.668 66.6112 35.22 66.6112 35.844L66.5992 36.108ZM63.5512 33.372C62.9432 33.372 62.4312 33.568 62.0152 33.96C61.6072 34.344 61.3752 34.848 61.3192 35.472H65.7952C65.7392 34.848 65.5032 34.344 65.0872 33.96C64.6792 33.568 64.1672 33.372 63.5512 33.372ZM70.7892 36.192H69.3492V39H68.4972V32.688H69.3492V35.46H70.8012L73.0212 32.688H73.9452L71.4612 35.748L74.1252 39H73.1172L70.7892 36.192ZM79.7809 33.444H77.3929V39H76.5409V33.444H74.1529V32.688H79.7809V33.444ZM84.2648 32.64C84.8568 32.64 85.3928 32.776 85.8728 33.048C86.3528 33.312 86.7288 33.688 87.0008 34.176C87.2728 34.664 87.4088 35.22 87.4088 35.844C87.4088 36.476 87.2728 37.036 87.0008 37.524C86.7288 38.012 86.3528 38.392 85.8728 38.664C85.4008 38.928 84.8648 39.06 84.2648 39.06C83.7528 39.06 83.2888 38.956 82.8728 38.748C82.4648 38.532 82.1288 38.22 81.8648 37.812V41.328H81.0128V32.688H81.8288V33.936C82.0848 33.52 82.4208 33.2 82.8368 32.976C83.2608 32.752 83.7368 32.64 84.2648 32.64ZM84.2048 38.304C84.6448 38.304 85.0448 38.204 85.4048 38.004C85.7648 37.796 86.0448 37.504 86.2448 37.128C86.4528 36.752 86.5568 36.324 86.5568 35.844C86.5568 35.364 86.4528 34.94 86.2448 34.572C86.0448 34.196 85.7648 33.904 85.4048 33.696C85.0448 33.488 84.6448 33.384 84.2048 33.384C83.7568 33.384 83.3528 33.488 82.9928 33.696C82.6408 33.904 82.3608 34.196 82.1528 34.572C81.9528 34.94 81.8528 35.364 81.8528 35.844C81.8528 36.324 81.9528 36.752 82.1528 37.128C82.3608 37.504 82.6408 37.796 82.9928 38.004C83.3528 38.204 83.7568 38.304 84.2048 38.304ZM91.8433 39.06C91.2353 39.06 90.6873 38.924 90.1993 38.652C89.7113 38.372 89.3273 37.988 89.0473 37.5C88.7673 37.012 88.6273 36.46 88.6273 35.844C88.6273 35.228 88.7673 34.676 89.0473 34.188C89.3273 33.7 89.7113 33.32 90.1993 33.048C90.6873 32.776 91.2353 32.64 91.8433 32.64C92.4513 32.64 92.9993 32.776 93.4873 33.048C93.9753 33.32 94.3553 33.7 94.6273 34.188C94.9073 34.676 95.0473 35.228 95.0473 35.844C95.0473 36.46 94.9073 37.012 94.6273 37.5C94.3553 37.988 93.9753 38.372 93.4873 38.652C92.9993 38.924 92.4513 39.06 91.8433 39.06ZM91.8433 38.304C92.2913 38.304 92.6913 38.204 93.0433 38.004C93.4033 37.796 93.6833 37.504 93.8833 37.128C94.0833 36.752 94.1833 36.324 94.1833 35.844C94.1833 35.364 94.0833 34.936 93.8833 34.56C93.6833 34.184 93.4033 33.896 93.0433 33.696C92.6913 33.488 92.2913 33.384 91.8433 33.384C91.3953 33.384 90.9913 33.488 90.6313 33.696C90.2793 33.896 89.9993 34.184 89.7913 34.56C89.5913 34.936 89.4913 35.364 89.4913 35.844C89.4913 36.324 89.5913 36.752 89.7913 37.128C89.9993 37.504 90.2793 37.796 90.6313 38.004C90.9913 38.204 91.3953 38.304 91.8433 38.304ZM96.8683 32.688H97.7203V35.484H101.692V32.688H102.544V39H101.692V36.216H97.7203V39H96.8683V32.688ZM104.966 32.688H105.818V35.484H109.79V32.688H110.642V39H109.79V36.216H105.818V39H104.966V32.688ZM115.716 34.92C116.508 34.928 117.112 35.104 117.528 35.448C117.944 35.792 118.152 36.288 118.152 36.936C118.152 37.608 117.928 38.124 117.48 38.484C117.032 38.844 116.392 39.02 115.56 39.012L113.064 39V32.688H113.916V34.896L115.716 34.92ZM119.208 32.688H120.06V39H119.208V32.688ZM115.512 38.364C116.096 38.372 116.536 38.256 116.832 38.016C117.136 37.768 117.288 37.408 117.288 36.936C117.288 36.472 117.14 36.128 116.844 35.904C116.548 35.68 116.104 35.564 115.512 35.556L113.916 35.532V38.34L115.512 38.364ZM128.005 36.108H122.725C122.773 36.764 123.025 37.296 123.481 37.704C123.937 38.104 124.513 38.304 125.209 38.304C125.601 38.304 125.961 38.236 126.289 38.1C126.617 37.956 126.901 37.748 127.141 37.476L127.621 38.028C127.341 38.364 126.989 38.62 126.565 38.796C126.149 38.972 125.689 39.06 125.185 39.06C124.537 39.06 123.961 38.924 123.457 38.652C122.961 38.372 122.573 37.988 122.293 37.5C122.013 37.012 121.873 36.46 121.873 35.844C121.873 35.228 122.005 34.676 122.269 34.188C122.541 33.7 122.909 33.32 123.373 33.048C123.845 32.776 124.373 32.64 124.957 32.64C125.541 32.64 126.065 32.776 126.529 33.048C126.993 33.32 127.357 33.7 127.621 34.188C127.885 34.668 128.017 35.22 128.017 35.844L128.005 36.108ZM124.957 33.372C124.349 33.372 123.837 33.568 123.421 33.96C123.013 34.344 122.781 34.848 122.725 35.472H127.201C127.145 34.848 126.909 34.344 126.493 33.96C126.085 33.568 125.573 33.372 124.957 33.372ZM138.408 32.688L135.252 39.756C134.996 40.348 134.7 40.768 134.364 41.016C134.028 41.264 133.624 41.388 133.152 41.388C132.848 41.388 132.564 41.34 132.3 41.244C132.036 41.148 131.808 41.004 131.616 40.812L132.012 40.176C132.332 40.496 132.716 40.656 133.164 40.656C133.452 40.656 133.696 40.576 133.896 40.416C134.104 40.256 134.296 39.984 134.472 39.6L134.748 38.988L131.928 32.688H132.816L135.192 38.052L137.568 32.688H138.408ZM142.2 39.06C141.576 39.06 141.016 38.924 140.52 38.652C140.032 38.38 139.648 38 139.368 37.512C139.088 37.016 138.948 36.46 138.948 35.844C138.948 35.228 139.088 34.676 139.368 34.188C139.648 33.7 140.032 33.32 140.52 33.048C141.016 32.776 141.576 32.64 142.2 32.64C142.744 32.64 143.228 32.748 143.652 32.964C144.084 33.172 144.424 33.48 144.672 33.888L144.036 34.32C143.828 34.008 143.564 33.776 143.244 33.624C142.924 33.464 142.576 33.384 142.2 33.384C141.744 33.384 141.332 33.488 140.964 33.696C140.604 33.896 140.32 34.184 140.112 34.56C139.912 34.936 139.812 35.364 139.812 35.844C139.812 36.332 139.912 36.764 140.112 37.14C140.32 37.508 140.604 37.796 140.964 38.004C141.332 38.204 141.744 38.304 142.2 38.304C142.576 38.304 142.924 38.228 143.244 38.076C143.564 37.924 143.828 37.692 144.036 37.38L144.672 37.812C144.424 38.22 144.084 38.532 143.652 38.748C143.22 38.956 142.736 39.06 142.2 39.06ZM151.27 32.688V39H150.418V33.444H147.394L147.31 35.004C147.246 36.316 147.094 37.324 146.854 38.028C146.614 38.732 146.186 39.084 145.57 39.084C145.402 39.084 145.198 39.052 144.958 38.988L145.018 38.256C145.162 38.288 145.262 38.304 145.318 38.304C145.646 38.304 145.894 38.152 146.062 37.848C146.23 37.544 146.342 37.168 146.398 36.72C146.454 36.272 146.502 35.68 146.542 34.944L146.65 32.688H151.27ZM159.056 32.688L155.9 39.756C155.644 40.348 155.348 40.768 155.012 41.016C154.676 41.264 154.272 41.388 153.8 41.388C153.496 41.388 153.212 41.34 152.948 41.244C152.684 41.148 152.456 41.004 152.264 40.812L152.66 40.176C152.98 40.496 153.364 40.656 153.812 40.656C154.1 40.656 154.344 40.576 154.544 40.416C154.752 40.256 154.944 39.984 155.12 39.6L155.396 38.988L152.576 32.688H153.464L155.84 38.052L158.216 32.688H159.056ZM164.848 33.444H161.236V39H160.384V32.688H164.848V33.444ZM166.079 32.688H166.931V37.704L171.143 32.688H171.899V39H171.047V33.984L166.847 39H166.079V32.688ZM181.334 34.608C181.886 34.744 182.318 34.992 182.63 35.352C182.95 35.712 183.11 36.144 183.11 36.648C183.11 37.136 182.958 37.564 182.654 37.932C182.35 38.3 181.946 38.584 181.442 38.784C180.938 38.976 180.39 39.072 179.798 39.072C179.238 39.072 178.686 38.984 178.142 38.808C177.606 38.624 177.122 38.352 176.69 37.992L177.014 37.356C177.382 37.668 177.802 37.908 178.274 38.076C178.746 38.236 179.222 38.316 179.702 38.316C180.158 38.316 180.578 38.244 180.962 38.1C181.346 37.956 181.65 37.752 181.874 37.488C182.106 37.216 182.222 36.896 182.222 36.528C182.222 36.04 182.03 35.664 181.646 35.4C181.262 35.136 180.722 35.004 180.026 35.004H178.226V34.284H179.978C180.57 34.284 181.03 34.16 181.358 33.912C181.694 33.656 181.862 33.304 181.862 32.856C181.862 32.36 181.65 31.972 181.226 31.692C180.802 31.404 180.27 31.26 179.63 31.26C179.23 31.26 178.826 31.32 178.418 31.44C178.01 31.552 177.622 31.724 177.254 31.956L176.954 31.224C177.786 30.728 178.686 30.48 179.654 30.48C180.222 30.48 180.742 30.572 181.214 30.756C181.686 30.94 182.058 31.204 182.33 31.548C182.61 31.892 182.75 32.296 182.75 32.76C182.75 33.208 182.626 33.596 182.378 33.924C182.13 34.244 181.782 34.472 181.334 34.608ZM188.098 35.148H186.178V39H185.314V30.6H186.178V34.368H188.098L190.942 30.6H191.902L188.782 34.68L192.082 39H191.062L188.098 35.148ZM197.12 39.072C196.288 39.072 195.532 38.888 194.852 38.52C194.18 38.144 193.652 37.632 193.268 36.984C192.892 36.336 192.704 35.608 192.704 34.8C192.704 33.992 192.892 33.264 193.268 32.616C193.652 31.968 194.18 31.46 194.852 31.092C195.532 30.716 196.288 30.528 197.12 30.528C197.952 30.528 198.7 30.712 199.364 31.08C200.036 31.448 200.564 31.96 200.948 32.616C201.332 33.264 201.524 33.992 201.524 34.8C201.524 35.608 201.332 36.34 200.948 36.996C200.564 37.644 200.036 38.152 199.364 38.52C198.7 38.888 197.952 39.072 197.12 39.072ZM197.12 38.28C197.784 38.28 198.384 38.132 198.92 37.836C199.456 37.532 199.876 37.116 200.18 36.588C200.484 36.052 200.636 35.456 200.636 34.8C200.636 34.144 200.484 33.552 200.18 33.024C199.876 32.488 199.456 32.072 198.92 31.776C198.384 31.472 197.784 31.32 197.12 31.32C196.456 31.32 195.852 31.472 195.308 31.776C194.772 32.072 194.348 32.488 194.036 33.024C193.732 33.552 193.58 34.144 193.58 34.8C193.58 35.456 193.732 36.052 194.036 36.588C194.348 37.116 194.772 37.532 195.308 37.836C195.852 38.132 196.456 38.28 197.12 38.28Z" fill="#888888"/>
<path d="M14.1017 5H0V42H14.1017C18.8486 42 23.4011 40.0509 26.7577 36.5815C30.1143 33.1121 32 28.4065 32 23.5C32 18.5935 30.1143 13.8879 26.7577 10.4185C23.4011 6.9491 18.8486 5 14.1017 5ZM7.23164 13.4091H15.9096C18.2524 13.6428 20.4349 14.7423 22.0565 16.5055V16.5859H7.23164V13.4091ZM22.0565 30.4945C20.4349 32.2577 18.2524 33.3572 15.9096 33.5909H7.23164V30.4141H22.0565V30.4945ZM23.7324 28.0353H7.23164V24.6343H24.7051C24.5782 25.8185 24.2489 26.9701 23.7324 28.0353V28.0353ZM7.23164 22.3657V18.9647H23.7324C24.2489 20.0299 24.5782 21.1815 24.7051 22.3657H7.23164Z" fill="#39A9CB"/>
</svg>
