<?xml version="1.0" encoding="utf-8"?>
<!-- Generator: Adobe Illustrator 24.1.0, SVG Export Plug-In . SVG Version: 6.00 Build 0)  -->
<svg version="1.1" xmlns="http://www.w3.org/2000/svg" xmlns:xlink="http://www.w3.org/1999/xlink" x="0px" y="0px"
	 viewBox="0 0 177 198" style="enable-background:new 0 0 177 198;" xml:space="preserve">
<style type="text/css">
	.st0{display:none;}
	.st1{display:inline;fill:#39A9CB;}
	.st2{fill:#39A9CB;}
	.st3{display:none;fill:#B5D9E2;}
	.st4{fill:#98D7E5;}
	.st5{fill:#FFFFFF;}
</style>
<g id="Слой_1" class="st0">
	<path class="st1" d="M78,0H39.1L0,39.1V198h78c54.7,0,99-44.3,99-99S132.7,0,78,0L78,0z M40,45h48c13,1.3,25,7.1,34,16.6V62H40V45z
		 M122,136.4c-9,9.4-21,15.3-34,16.6H40v-17h82V136.4z M131.3,123.3H40v-18.2h96.7C135.9,111.4,134.1,117.6,131.3,123.3z M40,92.9
		V74.7h91.3c2.9,5.7,4.7,11.9,5.4,18.2H40z"/>
</g>
<g id="Слой_2">
	<path class="st2" d="M84,196.6c-42.5,0-82.1,0-82.1,0V40.3L40.3,1.8c0,0,31.3,0,43.7,0c41.1,0,92,39.1,92,94.4
		C176,155.1,128.5,196.6,84,196.6z"/>
	<path class="st3" d="M82.2,153.4c-23.7,0-39.8,0-39.8,0V44.6c0,0,33,0,39.8,0c22.9,0,51.3,21.8,51.3,52.7
		C133.5,130.2,107,153.4,82.2,153.4z"/>
	<path class="st4" d="M34.8,40.3h-33L40.3,1.8v33C40.3,37.8,37.9,40.3,34.8,40.3z"/>
	<path class="st5" d="M82.2,44.6c-6.9,0-34.8,0-34.8,0v7.3h59.2C98.7,47.2,90.1,44.6,82.2,44.6z"/>
	<path class="st5" d="M125.3,70h-78v7.3h81.9C128.1,74.7,126.8,72.3,125.3,70z"/>
	<path class="st5" d="M133.5,98.6v-2.4c0-0.3,0-0.6,0-0.8H47.3v7.3h85.9C133.4,101.3,133.5,99.9,133.5,98.6z"/>
	<path class="st5" d="M128.6,120.7H47.3v7.3h77.4C126.2,125.7,127.5,123.3,128.6,120.7z"/>
	<path class="st5" d="M47.3,146.1v7.3c0,0,11.1,0,34.8,0c8.3,0,16.8-2.6,24.4-7.3H47.3z"/>
</g>
</svg>
