<svg width="21" height="26" viewBox="0 0 21 26" fill="none" xmlns="http://www.w3.org/2000/svg">
<path d="M10.3218 12.5243C11.9762 12.5243 13.4086 11.9072 14.5794 10.6896C15.7497 9.47227 16.3433 7.98276 16.3433 6.26195C16.3433 4.54174 15.7499 3.05203 14.5792 1.83427C13.4085 0.61711 11.976 0 10.3218 0C8.66717 0 7.23494 0.61711 6.0644 1.83447C4.89386 3.05183 4.30029 4.54154 4.30029 6.26195C4.30029 7.98276 4.89386 9.47247 6.0644 10.6898C7.23532 11.907 8.66774 12.5243 10.3218 12.5243ZM7.10047 2.91178C7.99864 1.97769 9.05226 1.52363 10.3218 1.52363C11.5911 1.52363 12.6449 1.97769 13.5433 2.91178C14.4415 3.84608 14.8783 4.94204 14.8783 6.26195C14.8783 7.58226 14.4415 8.67802 13.5433 9.61232C12.6449 10.5466 11.5911 11.0007 10.3218 11.0007C9.05264 11.0007 7.99902 10.5464 7.10047 9.61232C6.20211 8.67822 5.76533 7.58226 5.76533 6.26195C5.76533 4.94204 6.20211 3.84608 7.10047 2.91178Z" fill="#888888"/>
<path d="M20.8579 19.9927C20.8241 19.4861 20.7558 18.9334 20.6553 18.3499C20.5538 17.7619 20.4232 17.2061 20.2668 16.6981C20.105 16.173 19.8855 15.6545 19.6137 15.1576C19.332 14.6418 19.0009 14.1927 18.6293 13.8232C18.2408 13.4366 17.7651 13.1257 17.215 12.899C16.6668 12.6735 16.0593 12.5592 15.4095 12.5592C15.1543 12.5592 14.9075 12.6681 14.4309 12.9909C14.1375 13.1898 13.7944 13.4199 13.4114 13.6744C13.0839 13.8914 12.6402 14.0948 12.0923 14.2788C11.5576 14.4588 11.0148 14.55 10.4788 14.55C9.94324 14.55 9.40041 14.4588 8.8654 14.2788C8.31799 14.095 7.87415 13.8916 7.54723 13.6746C7.16786 13.4225 6.82454 13.1924 6.5268 12.9907C6.05054 12.6679 5.80373 12.559 5.54852 12.559C4.8985 12.559 4.2912 12.6735 3.74322 12.8992C3.19352 13.1255 2.71764 13.4364 2.32873 13.8234C1.95718 14.1931 1.62606 14.642 1.34454 15.1576C1.07312 15.6545 0.853394 16.1728 0.69165 16.6983C0.535439 17.2063 0.404785 17.7619 0.303314 18.3499C0.202606 18.9327 0.134514 19.4855 0.100754 19.9933C0.0675659 20.4898 0.0507812 21.0065 0.0507812 21.5286C0.0507812 22.8858 0.46563 23.9846 1.28369 24.7949C2.09164 25.5945 3.16052 26 4.46076 26H16.4984C17.7983 26 18.8672 25.5945 19.6753 24.7949C20.4936 23.9852 20.9084 22.886 20.9084 21.5284C20.9082 21.0046 20.8912 20.4878 20.8579 19.9927ZM18.6652 23.691C18.1313 24.2194 17.4225 24.4763 16.4982 24.4763H4.46076C3.53627 24.4763 2.8275 24.2194 2.29382 23.6912C1.77026 23.1729 1.51582 22.4653 1.51582 21.5286C1.51582 21.0415 1.53127 20.5604 1.56216 20.0986C1.5923 19.6456 1.65391 19.1479 1.74527 18.619C1.83549 18.0967 1.95031 17.6066 2.08688 17.1628C2.21791 16.7374 2.39663 16.316 2.61826 15.9102C2.82979 15.5234 3.07317 15.1915 3.34172 14.9241C3.59292 14.674 3.90954 14.4693 4.28262 14.3157C4.62766 14.1737 5.01542 14.0959 5.43637 14.0842C5.48768 14.1126 5.57904 14.1668 5.72705 14.2671C6.02822 14.4712 6.37536 14.7041 6.75912 14.959C7.1917 15.2459 7.74903 15.5049 8.41489 15.7285C9.09562 15.9574 9.78989 16.0736 10.479 16.0736C11.1681 16.0736 11.8626 15.9574 12.543 15.7287C13.2094 15.5047 13.7665 15.2459 14.1997 14.9586C14.5924 14.6976 14.9298 14.4714 15.231 14.2671C15.379 14.167 15.4704 14.1126 15.5217 14.0842C15.9428 14.0959 16.3306 14.1737 16.6758 14.3157C17.0487 14.4693 17.3653 14.6742 17.6165 14.9241C17.8851 15.1913 18.1284 15.5232 18.34 15.9104C18.5618 16.316 18.7407 16.7376 18.8715 17.1627C19.0083 17.607 19.1233 18.0969 19.2133 18.6188C19.3045 19.1487 19.3663 19.6466 19.3964 20.0988V20.0992C19.4275 20.5592 19.4432 21.0401 19.4434 21.5286C19.4432 22.4655 19.1887 23.1729 18.6652 23.691Z" fill="#888888"/>
</svg>
